<svg xmlns="http://www.w3.org/2000/svg" viewBox="0 0 500 500"><g id="freepik--background-simple--inject-29"><path d="M482.9,279.86S486.16,153,411.39,93.41c-66-52.57-158.54-62.14-222.49.6-22.79,22.35-35.79,60.67-64.08,76.46-31.73,17.71-74.37,29.12-97.16,86.61S27,380,74.61,409s114.93-17.79,180.33-31.11S473.08,437.41,482.9,279.86Z" style="fill:#92E3A9"></path><path d="M482.9,279.86S486.16,153,411.39,93.41c-66-52.57-158.54-62.14-222.49.6-22.79,22.35-35.79,60.67-64.08,76.46-31.73,17.71-74.37,29.12-97.16,86.61S27,380,74.61,409s114.93-17.79,180.33-31.11S473.08,437.41,482.9,279.86Z" style="fill:#fff;opacity:0.7000000000000001"></path></g><g id="freepik--Buildings--inject-29"><polyline points="20 391 37 391 37 359 50 359 50 371 63 371 63 350 93 350 93 369 120 369 120 344 142 344 142 368 163.87 368 163.87 315 177 315 177 337 188 337 188 306 215 306 215 371 251 371 251 328 274 328 274 353 294 353 294 320 329 320 329 356 347 356 347 335 361 335 361 349 375 349 375 332 383 332 383 315 395 315 395 363.29 405.96 363.29 405.96 351 409 351 409 378 427 378 427 341 440 341 440 359 448 359 448 378 456 378 456 352 462 352 462 391 486 391" style="fill:none;stroke:#000;stroke-linecap:round;stroke-linejoin:round;opacity:0.30000000000000004"></polyline></g><g id="freepik--Clouds--inject-29"><g style="opacity:0.30000000000000004"><path d="M353,30.81a8.48,8.48,0,0,1-3.37,1.66c-3.38.75-12.4.38-13.9,4.51a9,9,0,0,1-5.64,5.26s-7.14.38-7.52,1.88-3,4.13-3,4.13H442.47s4.13-6.38-2.64-12.4c-5.91-5.26-16.72,2.72-18.07-3.77" style="fill:none;stroke:#000;stroke-linecap:round;stroke-linejoin:round"></path><path d="M420.64,22.52c-1.37-4.95-4.25-11.62-10.12-14.1-9.77-4.13-18,1.51-20.29,7.14s-3.75,9.4-12.4,4.51S361.67,15.56,359,22a28.63,28.63,0,0,1-2.78,5.3" style="fill:none;stroke:#000;stroke-linecap:round;stroke-linejoin:round"></path><path d="M66.42,159.05h42.67s2.5-3.87-1.59-7.5-12,3.18-10.91-4.55c0,0-.91-9.55-6.82-12.05a9.5,9.5,0,0,0-9.43.86" style="fill:none;stroke:#000;stroke-linecap:round;stroke-linejoin:round"></path><path d="M77.5,139.27C76.14,142.68,75.23,145,70,142s-9.77-2.73-11.36,1.14S55,149.05,53,149.5s-7.5.23-8.41,2.73a5.4,5.4,0,0,1-3.4,3.18s-4.32.23-4.55,1.14a8.94,8.94,0,0,1-1.82,2.5H59.72" style="fill:none;stroke:#000;stroke-linecap:round;stroke-linejoin:round"></path><path d="M357.93,96.33h20.16s2.5-3.86-1.6-7.5-12,3.19-10.9-4.54c0,0-.91-9.55-6.82-12.05s-10.91.91-12.28,4.32-2.27,5.68-7.5,2.73-9.77-2.73-11.36,1.13S324,86.33,322,86.79s-7.5.22-8.41,2.72a5.42,5.42,0,0,1-3.41,3.19s-4.32.22-4.55,1.13a8.59,8.59,0,0,1-1.82,2.5h47.48" style="fill:none;stroke:#000;stroke-linecap:round;stroke-linejoin:round"></path></g></g><g id="freepik--Trees--inject-29"><path d="M410.5,144.09s7.06-35.29-22.74-36.07-42.35,24.31-59.61,46.27-9.41-27.45-39.21,13.33-6.28,73.72-5.49,80-28.24-29-41.57.78,8.63,51.77,29.8,70.59,43.92,31.37,50.2,30.58,62,1.57,79.21-16.47-2.35-22,5.49-32.93,36.08-4.71,46.27-28.24S441.09,221,427,213.11s18-6.27,22.75-28.24a38.09,38.09,0,0,0-9.37-33.38,29.12,29.12,0,0,0-13.06-8.05C425.25,142.88,411.1,141.08,410.5,144.09Z" style="fill:#92E3A9"></path><path d="M410.5,144.09s7.06-35.29-22.74-36.07-42.35,24.31-59.61,46.27-9.41-27.45-39.21,13.33-6.28,73.72-5.49,80-28.24-29-41.57.78,8.63,51.77,29.8,70.59,43.92,31.37,50.2,30.58,62,1.57,79.21-16.47-2.35-22,5.49-32.93,36.08-4.71,46.27-28.24S441.09,221,427,213.11s18-6.27,22.75-28.24a38.09,38.09,0,0,0-9.37-33.38,29.12,29.12,0,0,0-13.06-8.05C425.25,142.88,411.1,141.08,410.5,144.09Z" style="fill:#fff;opacity:0.2"></path><polygon points="375.99 303.3 351.85 317.64 358.74 294.68 344.77 321.84 327.78 331.93 346.19 236.64 339.12 265.63 316.39 230.37 337.56 269.58 339.07 265.81 327.57 312.95 291.29 278.99 325.84 320.02 289.72 468 301.49 468 326.12 340.52 375.99 303.3" style="fill:#b2b2b2"></polygon><path d="M285,55s9-45-29-46-54,31-76,59-12-35-50,17-8,94-7,102-36-37-53,1,11,66,38,90,56,40,64,39,79,2,101-21-3-28,7-42,46-6,59-36-15-65-33-75,23-8,29-36c3.17-14.79-1.43-31.6-11.93-42.57A37.14,37.14,0,0,0,306.4,54.17C303.81,53.45,285.77,51.16,285,55Z" style="fill:#92E3A9"></path><path d="M285,55s9-45-29-46-54,31-76,59-12-35-50,17-8,94-7,102-36-37-53,1,11,66,38,90,56,40,64,39,79,2,101-21-3-28,7-42,46-6,59-36-15-65-33-75,23-8,29-36c3.17-14.79-1.43-31.6-11.93-42.57A37.14,37.14,0,0,0,306.4,54.17C303.81,53.45,285.77,51.16,285,55Z" style="fill:#fff;opacity:0.4"></path><polygon points="241 258 210.22 276.28 219 247 201.19 281.64 179.52 294.5 203 173 193.98 209.97 165 165 192 215 193.92 210.2 179.25 270.3 133 227 177.05 279.31 131 468 146 468 177.41 305.46 241 258" style="fill:#b2b2b2"></polygon></g><g id="freepik--Plants--inject-29"><line x1="38" y1="467.86" x2="479.86" y2="467.86" style="fill:none;stroke:#263238;stroke-linecap:round;stroke-linejoin:round"></line><path d="M313.42,429.56a12.78,12.78,0,0,0,4.93,0c0,1.08,0,2.05.11,3.15a31.67,31.67,0,0,0,.77,4.71s0,.05,0,0c-.17-.29-1-1.5-1.09-1.61-1.39-1.47-3.41-2.77-5.24-2.17a1.89,1.89,0,0,0-.92,2.88,3.92,3.92,0,0,0,3.12,1.75,12.47,12.47,0,0,0,4.19-.65,33.81,33.81,0,0,0,1.7,4.59c.42.87,1.06,1.83,1.51,2.69a7.16,7.16,0,0,0-.58-.73c-1.42-1.32-3.57-2.85-5.42-2.2a1.85,1.85,0,0,0-.88,2.87,4.16,4.16,0,0,0,3.23,1.78,13.6,13.6,0,0,0,4.36-.49l.59,1c.92,1.63,1.76,3.3,2.56,5,.28.59.49,1.17.71,1.76-.06-.11-.37-.61-.42-.66-1.31-1.49-3.6-3.09-5.5-2.52-1.36.42-1.49,1.78-.91,2.87a4.38,4.38,0,0,0,3.17,2,14.57,14.57,0,0,0,4.15-.25c.19.52.44,1.27.58,1.75a10.23,10.23,0,0,1,.28,1.21c.08.42.17.82.23,1.2.12.72.24,1.63.32,2.27s.12,1,.17,1.53c-.08-.3-.57-1.58-.63-1.69-1-1.79-2.77-3.58-4.72-3.39a1.89,1.89,0,0,0-1.53,2.62,4.05,4.05,0,0,0,2.66,2.43,13.4,13.4,0,0,0,4.26.4c.08.72.16,1.68.21,2.36s.07,1.08.1,1.7l1.08.11c-.05-.7-.08-1.14-.15-1.9s-.19-1.81-.29-2.63c.85-.26,1.69-.53,2.52-.86a15.54,15.54,0,0,0,3.24,2.64c-.39.69-.8,1.39-1.19,2.06-.22.36-.41.69-.62,1l1.14.12.37-.66c.44-.76.86-1.55,1.28-2.32a13.2,13.2,0,0,0,4.19.85,4.07,4.07,0,0,0,3.26-1.58,1.79,1.79,0,0,0-.74-2.84c-1.8-.69-4,.45-5.47,1.81-.09.08-.85,1.08-1,1.3l.52-1c.34-.69.72-1.37,1.07-2.07.17-.34.33-.72.51-1.08s.32-.75.47-1.13c.36-.89.66-1.83,1-2.74a12.33,12.33,0,0,0,4,1.46,4.38,4.38,0,0,0,3.56-1c.84-.88,1-2.19-.21-2.88-1.7-1-4.05-.17-5.83.88a16.16,16.16,0,0,0-1.35,1.13c.13-.53.37-1.08.55-1.64.51-1.62,1-3.26,1.52-4.88.16-.49.32-1,.5-1.48a13.78,13.78,0,0,0,4.06,1.51,4.62,4.62,0,0,0,3.66-.95c.89-.85,1.15-2.19-.08-2.9-1.7-1-4.11-.08-5.93.93-.14.08-1.4,1.06-1.66,1.3a30.92,30.92,0,0,1,1.16-3.21c.65-1.47,1.44-2.93,2.09-4.4a10,10,0,0,0,4.07,1.33,4.51,4.51,0,0,0,3.62-1.66c.78-1.07,1.12-2.91-.24-3.6-1.88-1-4.2.81-5.8,2.1-.11.09-1.17,1.3-1.41,1.52,0,0-.11,0-.09-.05.78-1.62,1.68-3.32,2.55-4.9.5-.92,1-1.73,1.49-2.61a9.74,9.74,0,0,0,3.89,1.45,4.22,4.22,0,0,0,3.55-1.65c.78-1.1,1-2.73-.27-3.54-1.81-1.13-4.15.43-5.63,1.73-.05.05-.59.69-.68.78a.68.68,0,0,1,0-.27,1.55,1.55,0,0,1,.15-.28c.69-1.16,1.47-2.45,2.18-3.56.4-.63.67-1,1.07-1.62a15.4,15.4,0,0,0,4.21-.71,4.24,4.24,0,0,0,2.61-2.57,1.84,1.84,0,0,0-1.72-2.46c-2,0-3.59,1.76-4.58,3.61a17.47,17.47,0,0,0-.66,2.08c0,.22.05,0,0,.06-.38.56-.66.94-1,1.53-.73,1.09-1.51,2.38-2.24,3.48.09-1.78,0-5.59-2.31-5.69-3.07-.14-3.51,3.37-2.08,5.29,1,1.35,2.24,1.46,3.7,1.57-.67,1.07-1.27,2.09-1.92,3.23-.89,1.57-1.83,3.25-2.66,4.88,0,0,0,.05,0,0,.09-.35.33-2,.32-2.17,0-2.13-.63-4.72-2.56-5.43-1.39-.51-2.35.65-2.59,1.89a4.43,4.43,0,0,0,1.13,3.58,11.28,11.28,0,0,0,3.6,2.35c-.7,1.52-1.53,3-2.26,4.52-.41.86-.72,1.71-1.06,2.57a7.94,7.94,0,0,0,.15-.81c0-1.9-.47-4.18-2.26-4.94a2.4,2.4,0,0,0-3,1.38c-.55,1.11.12,2.29,1,3.23a13.74,13.74,0,0,0,3.73,2.35c-.1.34-.24.67-.35,1-.57,1.6-1.07,3.23-1.63,4.83-.19.56-.42,1.1-.6,1.65,0-.12.09-.66.09-.72,0-2-.85-4.29-2.67-5.07a2,2,0,0,0-2.81,1.44A4,4,0,0,0,336,455.4a14.18,14.18,0,0,0,3.55,2.22c-.17.51-.44,1.21-.63,1.66s-.31.73-.5,1.1-.35.74-.53,1.07l-1.06,2c-.3.56-.47.87-.74,1.34.1-.32.43-1.58.45-1.73a8.47,8.47,0,0,0-.58-4.07c-.05-.15.05-.3,0-.45-.25-1.18-1-2.3-2.44-2-2,.42-2.95,2.61-3.37,4.62,0,.12-.08,1.37-.07,1.65-.06-.35-.09-.73-.15-1.12-.11-.77-.24-1.55-.38-2.34-.08-.38-.17-.79-.25-1.19s-.2-.81-.31-1.22c-.27-1-.66-1.92-1-2.86a14.75,14.75,0,0,0,4.17-1,3.79,3.79,0,0,0,2.33-2.8,2.19,2.19,0,0,0-2.33-2.43c-2.08.12-3.44,2-4.07,4.11,0,.14-.24,1.46-.26,1.76-.25-.56-.45-1.14-.74-1.72-.85-1.68-1.74-3.35-2.69-5-.3-.5-.62-1-.9-1.5a16.22,16.22,0,0,0,4.37-1.27,3.2,3.2,0,0,0,1.87-3.08,2.44,2.44,0,0,0-2.67-2.3c-2,.31-3.17,2.36-3.6,4.46,0,.15,0,1.72,0,2.07-.61-1-1.38-2.21-2-3.26a25.55,25.55,0,0,1-1.75-4.42,12.62,12.62,0,0,0,4-1.52,3.91,3.91,0,0,0,1.88-3.08c0-1.23-.83-2.32-2.2-2.05-1.89.38-3,2.53-3.52,4.49,0,.13-.15,1.52-.17,1.81,0,0-.09.08-.1,0a29.4,29.4,0,0,1-.87-4.64c-.1-.88-.13-1.65-.16-2.52a12.35,12.35,0,0,0,4-1.05,4,4,0,0,0,2.2-2.86,1.86,1.86,0,0,0-1.95-2.28c-1.92.16-3.29,2.21-4,4.06,0,.1-.27,1.23-.31,1.47,0-.3,0-.75,0-1.07,0-1.19.08-2.45.17-3.59,0-.65.1-1.08.18-1.69a12.22,12.22,0,0,0,3.1-2.79,4.05,4.05,0,0,0,.66-3.55,1.87,1.87,0,0,0-2.79-1.11c-1.62,1-1.92,3.44-1.69,5.46,0,.17.47,1.81.57,2s.05,0,.05,0c-.05.6-.13,1-.19,1.63-.11,1.15-.22,2.4-.26,3.59,0,.22,0,.53,0,.73-1.1-1.62-2.82-3.68-4.93-3.18C310.84,426.59,311.31,429,313.42,429.56Z" style="fill:#263238"></path><path d="M264.48,441.27a8.85,8.85,0,0,0,3.44,0c0,.75,0,1.42.07,2.2a23.36,23.36,0,0,0,.54,3.28,0,0,0,0,1,0,0c-.12-.2-.69-1.05-.76-1.12-1-1-2.38-1.94-3.66-1.52a1.32,1.32,0,0,0-.64,2,2.74,2.74,0,0,0,2.17,1.22,8.27,8.27,0,0,0,2.93-.46,23.37,23.37,0,0,0,1.19,3.21c.29.61.74,1.28,1.05,1.88-.05-.09-.37-.48-.4-.51-1-.92-2.5-2-3.79-1.54a1.3,1.3,0,0,0-.62,2,3,3,0,0,0,2.27,1.24,9.26,9.26,0,0,0,3-.34q.22.36.42.72c.64,1.14,1.23,2.3,1.78,3.47.2.42.35.82.5,1.23,0-.08-.26-.42-.29-.46-.92-1-2.51-2.15-3.84-1.76a1.3,1.3,0,0,0-.64,2,3.08,3.08,0,0,0,2.22,1.37,10.1,10.1,0,0,0,2.89-.18c.13.36.31.89.4,1.23a6.31,6.31,0,0,1,.2.84c.06.29.12.57.16.83.08.51.17,1.14.23,1.59s.08.69.11,1.07a11.85,11.85,0,0,0-.44-1.19c-.7-1.24-1.93-2.49-3.29-2.36a1.32,1.32,0,0,0-1.06,1.83,2.84,2.84,0,0,0,1.85,1.7,9.16,9.16,0,0,0,3,.27c.06.51.11,1.18.15,1.65s.05.75.07,1.19l.75.08c0-.49-.05-.8-.1-1.33s-.14-1.27-.21-1.83c.6-.18,1.19-.38,1.76-.61a11.15,11.15,0,0,0,2.26,1.85c-.27.47-.55,1-.83,1.43l-.43.74.8.08.26-.46c.3-.53.59-1.08.89-1.62a8.89,8.89,0,0,0,2.93.59,2.82,2.82,0,0,0,2.27-1.1,1.25,1.25,0,0,0-.52-2c-1.25-.48-2.78.31-3.82,1.27-.06.05-.59.74-.69.9l.36-.69.75-1.44c.12-.24.23-.5.35-.75s.23-.52.33-.79c.25-.62.46-1.28.68-1.91a8.62,8.62,0,0,0,2.76,1,3.07,3.07,0,0,0,2.49-.69,1.21,1.21,0,0,0-.15-2c-1.18-.67-2.83-.12-4.07.62a10.69,10.69,0,0,0-.94.78c.09-.37.25-.75.38-1.14.36-1.13.69-2.28,1.06-3.41.12-.34.23-.69.35-1a9.48,9.48,0,0,0,2.84,1.05,3.2,3.2,0,0,0,2.55-.66c.62-.59.8-1.53-.05-2-1.19-.68-2.88-.06-4.15.65-.09.05-1,.74-1.16.9a22.46,22.46,0,0,1,.82-2.24c.45-1,1-2,1.46-3.07a6.76,6.76,0,0,0,2.83.93,3.13,3.13,0,0,0,2.53-1.16c.55-.74.78-2-.16-2.51-1.32-.66-2.93.56-4.05,1.46-.08.06-.82.91-1,1.07,0,0-.08,0-.06,0,.54-1.13,1.18-2.31,1.78-3.42.35-.64.68-1.21,1-1.82a6.82,6.82,0,0,0,2.71,1,2.94,2.94,0,0,0,2.48-1.15,1.67,1.67,0,0,0-.19-2.47c-1.26-.79-2.89.3-3.92,1.21,0,0-.41.48-.48.54a.43.43,0,0,1,0-.19.93.93,0,0,1,.11-.19c.48-.82,1-1.71,1.52-2.49.28-.44.46-.72.75-1.13a10.46,10.46,0,0,0,2.93-.5,2.89,2.89,0,0,0,1.82-1.79,1.27,1.27,0,0,0-1.19-1.71c-1.37,0-2.51,1.23-3.2,2.51a11.89,11.89,0,0,0-.46,1.46c0,.15,0,0,0,0-.26.39-.46.66-.73,1.07-.51.76-1.06,1.65-1.56,2.43.06-1.25,0-3.91-1.62-4-2.14-.09-2.45,2.36-1.45,3.7a3,3,0,0,0,2.58,1.09c-.46.75-.88,1.46-1.34,2.25-.62,1.1-1.27,2.27-1.85,3.41l0,0c.07-.25.23-1.41.23-1.52,0-1.48-.45-3.29-1.79-3.78-1-.36-1.64.45-1.81,1.31a3.07,3.07,0,0,0,.79,2.5,7.85,7.85,0,0,0,2.51,1.64c-.49,1.06-1.07,2.11-1.57,3.16-.29.6-.51,1.19-.74,1.79,0-.09.1-.51.1-.56,0-1.33-.33-2.92-1.58-3.45a1.67,1.67,0,0,0-2.12,1,2.07,2.07,0,0,0,.68,2.26,9.76,9.76,0,0,0,2.61,1.63c-.07.24-.17.48-.25.71-.4,1.12-.74,2.25-1.13,3.37-.14.39-.3.77-.42,1.15,0-.08.06-.45.06-.5,0-1.39-.59-3-1.87-3.54a1.39,1.39,0,0,0-2,1,2.74,2.74,0,0,0,1,2.4,10,10,0,0,0,2.48,1.56c-.12.35-.31.84-.44,1.15s-.22.52-.35.77-.25.52-.37.75l-.74,1.4c-.21.39-.33.6-.52.93.07-.22.31-1.1.32-1.21a6,6,0,0,0-.4-2.84c0-.1,0-.21,0-.31-.18-.83-.71-1.61-1.71-1.4-1.39.29-2.06,1.82-2.35,3.22,0,.08,0,1,0,1.15,0-.24-.06-.51-.1-.78-.08-.54-.17-1.08-.27-1.63-.05-.27-.12-.55-.17-.83s-.14-.57-.22-.86c-.19-.67-.46-1.34-.7-2a10.78,10.78,0,0,0,2.92-.73,2.62,2.62,0,0,0,1.62-1.95,1.53,1.53,0,0,0-1.63-1.7c-1.45.08-2.39,1.4-2.83,2.87,0,.09-.17,1-.19,1.23-.17-.39-.31-.8-.51-1.2-.6-1.17-1.22-2.34-1.88-3.48-.21-.35-.44-.7-.63-1.05a11.44,11.44,0,0,0,3.05-.89,2.22,2.22,0,0,0,1.3-2.15,1.69,1.69,0,0,0-1.86-1.6c-1.42.21-2.21,1.65-2.51,3.11,0,.11,0,1.2,0,1.44-.43-.71-1-1.54-1.36-2.27a17.76,17.76,0,0,1-1.23-3.09,8.46,8.46,0,0,0,2.79-1.06,2.72,2.72,0,0,0,1.32-2.14c0-.87-.58-1.63-1.54-1.44-1.32.27-2.1,1.77-2.46,3.14,0,.09-.1,1.06-.12,1.26,0,0-.05.05-.06,0a21,21,0,0,1-.61-3.24c-.07-.62-.09-1.15-.11-1.76a8.56,8.56,0,0,0,2.82-.73,2.84,2.84,0,0,0,1.53-2,1.3,1.3,0,0,0-1.36-1.59c-1.34.12-2.29,1.54-2.78,2.84,0,.07-.19.86-.22,1,0-.21,0-.52,0-.75,0-.83.06-1.7.12-2.5,0-.45.07-.75.13-1.18a8.43,8.43,0,0,0,2.16-1.95,2.8,2.8,0,0,0,.46-2.47,1.3,1.3,0,0,0-1.95-.78c-1.13.73-1.34,2.41-1.18,3.81,0,.12.34,1.26.4,1.4s0,0,0,0c0,.41-.09.7-.14,1.13-.08.8-.15,1.68-.17,2.51,0,.15,0,.37,0,.51-.77-1.13-2-2.57-3.44-2.22C262.68,439.2,263,440.86,264.48,441.27Z" style="fill:#263238"></path><path d="M264.84,467.86a25.61,25.61,0,0,0-4,0s1.88-2.42-.27-4.3-6.45,3-6.45,3a4.76,4.76,0,0,0-.81-4.31c-1.61-1.88-5.11,4.31-5.11,4.31s.27-3.23-2.15-4.84-1.88,4-1.88,4-1.34-1.08-3.49-2.69c-1.21-.9-2.49.55-3.39,2,.06-.28.12-.58.16-.92.27-2.42-5.92.53-5.92.53s2.16-3.49.27-6.18c-1.25-1.8-4,.24-5.6,1.56a5.52,5.52,0,0,0-.84-.93,2,2,0,0,0-.25-.18c.34-2.33.57-5.71-1.91-4.75-1.78.68-2.79,3.11-3.35,5.32a27.17,27.17,0,0,0-5.62,4.71s1.39-4.17-1.39-7.42-8.8,7.42-8.8,7.42.46-5.56-3.71-8.34-3.25,6.95-3.25,6.95-2.31-1.86-6-4.64c-2.07-1.55-4.28.94-5.83,3.44a15.2,15.2,0,0,0,.27-1.58c.46-4.17-10.2.92-10.2.92s3.71-6,.46-10.66-12.05,5.57-12.05,4.18S167,440.51,161,442.83,154,459.05,154,459.05s-.47-6-4.17-1.39.46,10.2.46,10.2Z" style="fill:#263238"></path><path d="M154.66,467.86c-.62-.34-1.18-.67-1.57-.93-1.39-.93-8.34-.46-8.34-.46s3.24-4.17-.47-7.42-11.12,5.1-11.12,5.1,1.39-4.17-1.39-7.42-8.81,7.42-8.81,7.42.47-5.56-3.71-8.34-3.24,6.95-3.24,6.95-2.32-1.86-6-4.64c-2.06-1.55-4.27.94-5.82,3.44a13,13,0,0,0,.26-1.58c.47-4.17-10.19.92-10.19.92s3.7-6,.46-10.66-12,5.57-12,4.18,3.24-13.91-2.78-11.59-7,16.22-7,16.22-.46-6-4.17-1.39.47,10.2.47,10.2Z" style="fill:#263238"></path><path d="M467.86,467.86a25.73,25.73,0,0,0-4,0s1.88-2.42-.27-4.3-6.45,3-6.45,3a4.76,4.76,0,0,0-.81-4.31c-1.61-1.88-5.1,4.31-5.1,4.31s.27-3.23-2.15-4.84-1.89,4-1.89,4-1.34-1.08-3.49-2.69c-1.2-.9-2.49.55-3.39,2a7.29,7.29,0,0,0,.16-.92c.27-2.42-5.91.53-5.91.53s2.15-3.49.27-6.18c-1.26-1.8-3.95.24-5.61,1.56a5.52,5.52,0,0,0-.84-.93,1.44,1.44,0,0,0-.25-.18c.35-2.33.57-5.71-1.91-4.75-1.78.68-2.79,3.11-3.35,5.32a27.17,27.17,0,0,0-5.62,4.71s1.4-4.17-1.39-7.42-8.8,7.42-8.8,7.42.46-5.56-3.71-8.34-3.24,6.95-3.24,6.95-2.32-1.86-6-4.64c-2.07-1.55-4.28.94-5.83,3.44a15.2,15.2,0,0,0,.27-1.58c.46-4.17-10.2.92-10.2.92s3.71-6,.46-10.66-12.05,5.57-12.05,4.18S370,440.51,364,442.83s-7,16.22-7,16.22-.46-6-4.17-1.39.46,10.2.46,10.2Z" style="fill:#263238"></path></g><g id="freepik--Leaves--inject-29"><path d="M364.33,187.67s-10-2-12.66,6a28.62,28.62,0,0,0-1.34,14S369,203,364.33,187.67Z" style="fill:#92E3A9"></path><path d="M466.81,309.67s-.55-10.18-9-10.77a28.68,28.68,0,0,0-13.9,2.19S453.12,318,466.81,309.67Z" style="fill:#92E3A9"></path><path d="M283.48,351.67s-.56-10.18-9-10.77a28.66,28.66,0,0,0-13.89,2.19S269.79,360,283.48,351.67Z" style="fill:#92E3A9"></path><path d="M167.9,181.41s-.34-6.38-5.62-6.75a18,18,0,0,0-8.7,1.37S159.32,186.63,167.9,181.41Z" style="fill:#92E3A9"></path><path d="M325.9,141.41s-.34-6.38-5.62-6.75a18,18,0,0,0-8.7,1.37S317.32,146.63,325.9,141.41Z" style="fill:#92E3A9"></path><path d="M450.9,111.41s-.34-6.38-5.62-6.75a18,18,0,0,0-8.7,1.37S442.32,116.63,450.9,111.41Z" style="fill:#92E3A9"></path><path d="M109.9,122.08s-.34-6.39-5.62-6.76a17.87,17.87,0,0,0-8.7,1.38S101.32,127.3,109.9,122.08Z" style="fill:#92E3A9"></path><path d="M378.88,377.46s.42,6.38,5.69,6.69a17.81,17.81,0,0,0,8.69-1.47S387.4,372.15,378.88,377.46Z" style="fill:#92E3A9"></path><path d="M204.68,354.34s-6.16-1.72-8.2,3.15a18,18,0,0,0-1.49,8.69S206.88,364.14,204.68,354.34Z" style="fill:#92E3A9"></path></g><g id="freepik--Character--inject-29"><path d="M117.21,376s3.45,28.22,3.9,29.6,1.61,21.11,1.61,26.85-.46,31.89-.46,31.89,3.67,5.05,6.43,6.89,6.65,2.75,6.88,4.36-1.61,2.52-2.29,2.52-9.41-.23-11-.92-6.19-3.44-7.11-3.44-3,2.75-5.05-.46,1.15-10.09,1.38-14.91-9.64-34.19-9.64-40.85A116.42,116.42,0,0,0,100,400.09c-.23-.92-5.73-25.24-5.5-26.62S111,371.18,111,371.18Z" style="fill:#fff;stroke:#263238;stroke-linecap:round;stroke-linejoin:round"></path><path d="M133.28,478.11c.68,0,2.52-.92,2.29-2.52s-4.13-2.53-6.88-4.36-6.43-6.89-6.43-6.89.46-26.16.46-31.89c0-.62,0-1.41,0-2.31-7,2.19-14.52,1.76-17.88,1.4,2.88,10.77,6.82,23.77,6.68,26.84-.23,4.82-3.45,11.7-1.38,14.91s4.13.46,5.05.46,5.51,2.75,7.11,3.44S132.59,478.11,133.28,478.11Z" style="fill:#263238;stroke:#263238;stroke-linecap:round;stroke-linejoin:round"></path><path d="M94.5,373.47s5.27,23.18,8,33.28,3.21,13.08,1.6,15.83S77.29,454,75.91,457.92s-3.21,6-3.21,7.8S69.71,479.26,66,482s-5.27,2.07-5.27-5.05,7.11-15.83,7.11-15.83,4.59-19.27,9-32.81,8-13.08,8-13.08S73.62,401.24,70.4,393s-8-20-8-20Z" style="fill:#fff;stroke:#263238;stroke-linecap:round;stroke-linejoin:round"></path><path d="M76.54,429.22c-4.27,13.47-8.66,31.91-8.66,31.91s-7.11,8.72-7.11,15.83,1.6,7.81,5.27,5.05,6.66-14.45,6.66-16.29,1.83-3.9,3.21-7.8c.78-2.2,9.12-12.25,16.55-21.11A25.4,25.4,0,0,1,76.54,429.22Z" style="fill:#263238;stroke:#263238;stroke-linecap:round;stroke-linejoin:round"></path><path d="M68.34,329.88s-10.56,13.3-12.85,22.71-5.28,19.51-5.28,19.51a107.93,107.93,0,0,0,13.31,5.73c8.72,3.22,13.54,4.13,17,4.13s14.23,1.61,14.23,1.61l.45-6.65L97,383.11s8.72,2.07,15.6-.46a74.6,74.6,0,0,0,12.4-6s-5.74-18.13-7.35-24.56a78.41,78.41,0,0,0-5.5-14s-14.46-1.38-16.76-1.84-11.47-1.38-14.22-2.52S68.34,329.88,68.34,329.88Z" style="fill:#858585;stroke:#263238;stroke-linecap:round;stroke-linejoin:round"></path><path d="M93.3,368.71c.8,2,1.43,3.39,1.43,3.39" style="fill:none;stroke:#263238;stroke-linecap:round;stroke-linejoin:round"></path><path d="M88.76,339.51s.46,12.85,1.15,18.13a45.14,45.14,0,0,0,2.53,8.84" style="fill:none;stroke:#263238;stroke-linecap:round;stroke-linejoin:round"></path><path d="M69,324.83l-.16.79-1.22,6.09s-.78,1.23,11.93,4.59c7.8,2.07,23.87,2.75,26.39,2.75a32.67,32.67,0,0,0,6.2-.91s.22-5.28.45-6.2-6.19-.46-19.27-2.52S69,324.83,69,324.83Z" style="fill:#263238;stroke:#263238;stroke-linecap:round;stroke-linejoin:round"></path><path d="M105.92,280.51s15.17,9.33,19.51,11.49,29,6.07,34.25,6.94,15.17,2.82,15.17,2.82l-.43,8s-46.61-1.52-52.46-2.39-13.44-13.22-17.13-18S96,279.43,105.92,280.51Z" style="fill:#858585;stroke:#263238;stroke-linecap:round;stroke-linejoin:round"></path><path d="M83.94,283.07a20.13,20.13,0,0,0-10.32,11.24c-3,8.26-6.66,26.39-6.66,29.14s-2.52,3.21,4.59,5.05,34.42,6,38.78,5.28a10.66,10.66,0,0,0,7.11-4.13c.69-.92.69-4.36,1.15-6.2s.69-6,.92-11a111.31,111.31,0,0,0-.69-15.15c-.23-.69-3.67-8-11.47-10.32S83.94,283.07,83.94,283.07Z" style="fill:#858585;stroke:#263238;stroke-linecap:round;stroke-linejoin:round"></path><path d="M97.09,317.66a72.69,72.69,0,0,1-2.47,8.17,25.46,25.46,0,0,1-3.78,7" style="fill:none;stroke:#263238;stroke-linecap:round;stroke-linejoin:round"></path><path d="M98.14,313.13s-.23,1.1-.61,2.72" style="fill:none;stroke:#263238;stroke-linecap:round;stroke-linejoin:round"></path><path d="M125.86,296.56c-5-9.76-4.55-9.33-9.1-11.71s-11.93-6.5-11.93-6.5l-2.16,4.11a78.46,78.46,0,0,1,16.25,15.83c7.37,9.75,8.89,17.78,7.16,26.66-1.57,8-7.74,19.44-8.91,21.55l-.13-.05-3.28,5.47,1.12.85,3.09-4.65-1.67,6.33,1.61.71,1.19-6.52h.15l.88.69-.93,6.53,1.78.71.33-6.32,1.69,1.31,0,4.25,1.3.21-.25-3.88c.09-.12.24-.33.44-.63l1.29,4.55,1.46.21-2.08-5.87a34.77,34.77,0,0,0,4-14.38C130,325,130.85,306.31,125.86,296.56Z" style="fill:#92E3A9;stroke:#263238;stroke-linecap:round;stroke-linejoin:round"></path><path d="M110.47,270.76l-4.55,9.75-.44,3-17.12-4.12s3-.87,3.9-5-.22-8.67,0-10,5-2.82,9.76-.21A38.84,38.84,0,0,1,110.47,270.76Z" style="fill:#fff;stroke:#263238;stroke-linecap:round;stroke-linejoin:round"></path><path d="M117,254.07s1.09,5,1.74,5.63,3,3,2.82,4.12-3,1.95-3,1.95-2.17,8-3.25,8.89-8.46-2.82-8.46-2.82-4.76-9.54-6.93-14.09a6.68,6.68,0,0,1,4.77-9.32C107.87,248,117,254.07,117,254.07Z" style="fill:#fff;stroke:#263238;stroke-linecap:round;stroke-linejoin:round"></path><path d="M115,259.71s1.72-1,2.58.57" style="fill:none;stroke:#263238;stroke-linecap:round;stroke-linejoin:round"></path><path d="M113.94,255.37a4.34,4.34,0,0,1,3.68,2.17" style="fill:none;stroke:#263238;stroke-linecap:round;stroke-linejoin:round"></path><path d="M115.1,267a1.6,1.6,0,0,1,2,1.28" style="fill:none;stroke:#263238;stroke-linecap:round;stroke-linejoin:round"></path><path d="M86.19,243.23s-6.94,9.75-5.42,14.31,8.46,10.62,9.54,14.74.65,5,.65,5,5.2-2.82,5.42-5.2.22-3.47.22-3.47,3.46,3.47,3.25,7.15-2.39,3.69-2.39,3.69,2,1.3,6.51,1.3,6.5-6.72,6.5-9.1-2.39-6.72-2.39-6.72l5,3.68s1.3-4.12,0-7.59-6.07-6.93-6.07-6.93,5.85,1.73,9.32,1.73,6.94-3.47,6.94-3.47a11.9,11.9,0,0,1-4.55-1.3,29.36,29.36,0,0,1-3-2.17,27.3,27.3,0,0,0,9.76,2.17c5.63.22,8-5.42,7.37-9.54a5.54,5.54,0,0,0-4.12-4.77s2.38,3.91.43,4.77-5.2-2.16-9.54-3.68a34.93,34.93,0,0,0-8.67-1.74l5.86-.86s-3.91-5-9.76-5.21-11.92,7.16-12.57,8S89.66,239.33,86.19,243.23Z" style="fill:#263238;stroke:#263238;stroke-linecap:round;stroke-linejoin:round"></path><path d="M189.16,350.75l.87-2.39-8.79-.19.23-2.22,7.47-.19.22-1.73-7.56.74,0-.3,7.53-2.39.22-1.95-7.61,3,0-.14s-8.46,1.51-19.08-5-18.64-12.79-25.14-21a127.5,127.5,0,0,1-7.88-11.28,48.39,48.39,0,0,0-9-10.61c-4.16-3.69-9.6-8.42-12.87-10.84-5.85-4.34-18.43-4.55-20.38-4.77s-5.85,5.2-5.85,5.2a150.39,150.39,0,0,1,15,3.9c8.23,2.61,15,5.86,23.41,14.75s19.94,28,29.48,37.93,16.69,13.87,22.33,13.87c3.33,0,5.75.08,7.17.14l5.18,2.9,1.09-1.52-4.61-2.86.07-.64,6.71,1.55.86-2.17-7.39-1.1.16-1.53Z" style="fill:#92E3A9;stroke:#263238;stroke-linecap:round;stroke-linejoin:round"></path><line x1="187.66" y1="303.04" x2="230.79" y2="302.18" style="fill:none;stroke:#263238;stroke-linecap:round;stroke-linejoin:round;stroke-width:2px"></line><path d="M174.42,302.62s15.61-4.55,18.21-4.55,6.93,2.82,6.93,2.82,3.47-.65,3.26.22a2.26,2.26,0,0,1-2.39,1.51c-1.3,0,1.09,2,.87,4.12s-3.69,1.09-6.94,1.95-6.72,1.52-7.59,1.31l-13-3.47Z" style="fill:#92E3A9;stroke:#263238;stroke-linecap:round;stroke-linejoin:round"></path><line x1="199.56" y1="302.62" x2="187.66" y2="303.04" style="fill:none;stroke:#263238;stroke-linecap:round;stroke-linejoin:round"></line><path d="M171,305.66s6.94-2,9.32-2,5.42-1.52,6.5-1.74,3.26,1.74,3.26,1.74l1.95,2s2.38,1.3,2.38,3a3.2,3.2,0,0,1-1.52,2.61l-2.81-.65a15.06,15.06,0,0,1-5.42,2.6c-2.6.43-12.79-1.74-12.79-1.74Z" style="fill:#92E3A9;stroke:#263238;stroke-linecap:round;stroke-linejoin:round"></path><path d="M227.36,302.4s11.59-31.12,13.3-33.91,18.46-16.3,27.47-21,14.37-6,14.37-6a27.77,27.77,0,0,0-4.29,17.59c1.08,10.09,10.3,16.74,10.3,16.74s-6.22,10.08-6.22,18.67a57.47,57.47,0,0,0,3,17s-6.22,7.72-6.22,17.81,3,14.8,3,14.8-15.87,0-24.67-4.72-21-16.09-24.25-23.38S227.36,302.4,227.36,302.4Z" style="fill:#263238;stroke:#263238;stroke-linecap:round;stroke-linejoin:round"></path><path d="M259.81,279.06c8.24-1.95,17-3.8,20.55-3.91" style="fill:none;stroke:#787878;stroke-linecap:round;stroke-linejoin:round"></path><path d="M229.93,300.25s9.23-15.45,12.88-16.74c1.56-.55,7.44-2.13,14.18-3.77" style="fill:none;stroke:#787878;stroke-linecap:round;stroke-linejoin:round"></path><path d="M266.6,312.25c1.45,0,2.82,0,4.1,0" style="fill:none;stroke:#787878;stroke-linecap:round;stroke-linejoin:round"></path><path d="M233,305.56A59.39,59.39,0,0,0,246,310.34a93.61,93.61,0,0,0,17.59,1.86" style="fill:none;stroke:#787878;stroke-linecap:round;stroke-linejoin:round"></path><path d="M229.07,303.47s.91.55,2.44,1.35" style="fill:none;stroke:#787878;stroke-linecap:round;stroke-linejoin:round"></path><path d="M82.72,290.27s9.76-4.34,16.91-2.6,26,9.75,28.4,9.75,39.45,5,41,5a14.91,14.91,0,0,1,3.9.87v6.93c0,1.74-.22,4.34-.22,4.34s-16.69.43-34,.43a225.21,225.21,0,0,1-36.85-2.6c-8-1.3-13.66-1.95-13.66-1.95l-7.15.43" style="fill:#858585;stroke:#263238;stroke-linecap:round;stroke-linejoin:round"></path><path d="M101.25,289.13s-7.57,6.42-16.14,8.57" style="fill:none;stroke:#263238;stroke-linecap:round;stroke-linejoin:round"></path><path d="M89,306.83S78.11,312,73,314.55" style="fill:none;stroke:#263238;stroke-linecap:round;stroke-linejoin:round"></path></g><g id="freepik--Wind--inject-29"><path d="M248.61,146.42C267.54,141.78,264.87,129.1,261,126" style="fill:none;stroke:#263238;stroke-linecap:round;stroke-linejoin:round"></path><path d="M82,116s24-16,49-6,52,36,95,38a106.12,106.12,0,0,0,12.88-.11" style="fill:none;stroke:#263238;stroke-linecap:round;stroke-linejoin:round"></path><path d="M120.5,93.56A54.23,54.23,0,0,1,142,99" style="fill:none;stroke:#263238;stroke-linecap:round;stroke-linejoin:round"></path><path d="M80,102a93.61,93.61,0,0,1,34-8.47" style="fill:none;stroke:#263238;stroke-linecap:round;stroke-linejoin:round"></path><path d="M251,398c44-6,74-31,108-33s49,12,49,12" style="fill:none;stroke:#263238;stroke-linecap:round;stroke-linejoin:round"></path><path d="M188,382s16.12,18.66,53,16.92" style="fill:none;stroke:#263238;stroke-linecap:round;stroke-linejoin:round"></path><path d="M352,357s38-9,67,12" style="fill:none;stroke:#263238;stroke-linecap:round;stroke-linejoin:round"></path></g></svg>